<?xml version="1.0" encoding="utf-8"?>
<!-- Generator: Adobe Illustrator 27.5.0, SVG Export Plug-In . SVG Version: 6.00 Build 0)  -->
<svg version="1.1" id="Layer_1" xmlns="http://www.w3.org/2000/svg" xmlns:xlink="http://www.w3.org/1999/xlink" x="0px" y="0px"
	 viewBox="0 0 919 204.1" style="enable-background:new 0 0 919 204.1;" xml:space="preserve">
<style type="text/css">
	.st0{clip-path:url(#SVGID_00000181796674373751662900000017022250347055259526_);}
	.st1{fill:#FFFFFF;stroke:#000000;stroke-width:7;stroke-linecap:round;stroke-linejoin:round;}
	.st2{fill:#FFFFFF;}
	.st3{fill:none;stroke:#000000;stroke-width:7;stroke-linecap:round;stroke-linejoin:round;}
</style>
<g>
	<g>
		<g>
			<defs>
				<rect id="SVGID_1_" y="0.5" width="918.4" height="203"/>
			</defs>
			<clipPath id="SVGID_00000107558310585462213890000008985641779347085755_">
				<use xlink:href="#SVGID_1_"  style="overflow:visible;"/>
			</clipPath>
			<g style="clip-path:url(#SVGID_00000107558310585462213890000008985641779347085755_);">
				<path class="st1" d="M641.7,53.4v147.2H3.9V53.4H641.7L641.7,53.4z"/>
				<path class="st2" d="M734.6,61.9v131.9l65,2.7l95.1-59l-28.6-75.6H734.6z"/>
				<path class="st2" d="M794.8,200.6h69.6c9.5,0,17.3-7.8,17.3-17.3c0-9.5-7.8-17.3-17.3-17.3h-52.7"/>
				<path class="st3" d="M794.8,200.6h69.6c9.5,0,17.3-7.8,17.3-17.3c0-9.5-7.8-17.3-17.3-17.3h-52.7"/>
				<path class="st2" d="M879.6,96.5c9.5,0,17.3-7.8,17.3-17.3s-7.8-17.3-17.3-17.3h-84.9"/>
				<path class="st3" d="M879.6,96.5c9.5,0,17.3-7.8,17.3-17.3s-7.8-17.3-17.3-17.3h-84.9"/>
				<path class="st2" d="M896.5,131.2c9.5,0,17.3-7.8,17.3-17.3c0-9.5-7.8-17.3-17.3-17.3h-92.4"/>
				<path class="st3" d="M896.5,131.2c9.5,0,17.3-7.8,17.3-17.3c0-9.5-7.8-17.3-17.3-17.3h-92.4"/>
				<path class="st2" d="M804.6,165.9h93.6c9.5,0,17.3-7.8,17.3-17.3s-7.8-17.3-17.3-17.3h-95.3"/>
				<path class="st3" d="M804.6,165.9h93.6c9.5,0,17.3-7.8,17.3-17.3s-7.8-17.3-17.3-17.3h-95.3"/>
				<path class="st3" d="M794.6,61.9h-30.5"/>
				<path class="st2" d="M801.7,200.6h-76.3c-8.9,0-17.5-3-24.5-8.4l-5.5-4.3c-3.9-3-8.7-4.7-13.6-4.7h-40.1V68.6h44
					c7.5,0,14.6-3,19.9-8.3l51.8-51.8c6.7-6.7,17.7-6.7,24.4,0s6.7,17.8,0,24.5l-12,12c-3.8,3.8-6,9-6,14.5v33.1
					c0,7-1.9,13.9-5.6,19.8l-9.8,14.3"/>
				<path class="st3" d="M801.7,200.6h-76.3c-8.9,0-17.5-3-24.5-8.4l-5.5-4.3c-3.9-3-8.7-4.7-13.6-4.7h-40.1V68.6h44
					c7.5,0,14.6-3,19.9-8.3l51.8-51.8c6.7-6.7,17.7-6.7,24.4,0s6.7,17.8,0,24.5l-12,12c-3.8,3.8-6,9-6,14.5v33.1
					c0,7-1.9,13.9-5.6,19.8l-9.8,14.3"/>
				<path class="st3" d="M658.4,68.7v114.6"/>
			</g>
		</g>
	</g>
</g>
</svg>
