<?xml version="1.0" encoding="utf-8"?>
<!-- Generator: Adobe Illustrator 27.5.0, SVG Export Plug-In . SVG Version: 6.00 Build 0)  -->
<svg version="1.1" id="Layer_1" xmlns="http://www.w3.org/2000/svg" xmlns:xlink="http://www.w3.org/1999/xlink" x="0px" y="0px"
	 viewBox="0 0 204.1 919" style="enable-background:new 0 0 204.1 919;" xml:space="preserve">
<style type="text/css">
	.st0{clip-path:url(#SVGID_00000147184998098054024350000001289702627887300994_);}
	.st1{fill:#FFFFFF;stroke:#000000;stroke-width:7;stroke-linecap:round;stroke-linejoin:round;}
	.st2{fill:#FFFFFF;}
	.st3{fill:none;stroke:#000000;stroke-width:7;stroke-linecap:round;stroke-linejoin:round;}
</style>
<g>
	<g>
		<defs>
			<rect id="SVGID_1_" x="0.6" y="0.6" width="203" height="918.4"/>
		</defs>
		<clipPath id="SVGID_00000037653347494647489040000000945500628544489629_">
			<use xlink:href="#SVGID_1_"  style="overflow:visible;"/>
		</clipPath>
		<g style="clip-path:url(#SVGID_00000037653347494647489040000000945500628544489629_);">
			<path class="st1" d="M150.7,277.3H3.5v637.8h147.2L150.7,277.3L150.7,277.3z"/>
			<path class="st2" d="M142.2,184.4H10.3l-2.7-65l59-95.1l75.6,28.6V184.4z"/>
			<path class="st2" d="M3.5,124.2V54.6c0-9.5,7.8-17.3,17.3-17.3s17.3,7.8,17.3,17.3v52.7"/>
			<path class="st3" d="M3.5,124.2V54.6c0-9.5,7.8-17.3,17.3-17.3s17.3,7.8,17.3,17.3v52.7"/>
			<path class="st2" d="M107.6,39.4c0-9.5,7.8-17.3,17.3-17.3s17.3,7.8,17.3,17.3v84.9"/>
			<path class="st3" d="M107.6,39.4c0-9.5,7.8-17.3,17.3-17.3s17.3,7.8,17.3,17.3v84.9"/>
			<path class="st2" d="M72.9,22.5c0-9.5,7.8-17.3,17.3-17.3s17.3,7.8,17.3,17.3v92.4"/>
			<path class="st3" d="M72.9,22.5c0-9.5,7.8-17.3,17.3-17.3s17.3,7.8,17.3,17.3v92.4"/>
			<path class="st2" d="M38.2,114.4V20.8c0-9.5,7.8-17.3,17.3-17.3s17.3,7.8,17.3,17.3v95.3"/>
			<path class="st3" d="M38.2,114.4V20.8c0-9.5,7.8-17.3,17.3-17.3s17.3,7.8,17.3,17.3v95.3"/>
			<path class="st3" d="M142.2,124.4v30.5"/>
			<path class="st2" d="M3.5,117.3v76.3c0,8.9,3,17.5,8.4,24.5l4.3,5.5c3,3.9,4.7,8.7,4.7,13.6v40.1h114.6v-44
				c0-7.5,3-14.6,8.3-19.9l51.8-51.8c6.7-6.7,6.7-17.7,0-24.4c-6.7-6.7-17.8-6.7-24.5,0l-12,12c-3.8,3.8-9,6-14.5,6h-33.1
				c-7,0-13.9,1.9-19.8,5.6l-14.3,9.8"/>
			<path class="st3" d="M3.5,117.3v76.3c0,8.9,3,17.5,8.4,24.5l4.3,5.5c3,3.9,4.7,8.7,4.7,13.6v40.1h114.6v-44
				c0-7.5,3-14.6,8.3-19.9l51.8-51.8c6.7-6.7,6.7-17.7,0-24.4c-6.7-6.7-17.8-6.7-24.5,0l-12,12c-3.8,3.8-9,6-14.5,6h-33.1
				c-7,0-13.9,1.9-19.8,5.6l-14.3,9.8"/>
			<path class="st3" d="M135.4,260.6H20.8"/>
		</g>
	</g>
</g>
</svg>
