<svg width="203" height="519" viewBox="0 0 203 519" fill="none" xmlns="http://www.w3.org/2000/svg">
<g clip-path="url(#clip0_17_7654)">
<path d="M150.1 276.661H2.90576V657.103H150.1V276.661Z" fill="white" stroke="black" stroke-width="7" stroke-linecap="round" stroke-linejoin="round"/>
<path d="M141.644 183.784H9.71986L7.00293 118.772L66.0054 23.6935L141.644 52.2821V183.784Z" fill="white"/>
<path d="M2.90576 123.609V53.9621C2.90576 44.4615 10.7079 36.6844 20.2389 36.6844C29.77 36.6844 37.5721 44.4615 37.5721 53.9621V106.708" fill="white"/>
<path d="M2.90576 123.609V53.9621C2.90576 44.4615 10.7079 36.6844 20.2389 36.6844C29.77 36.6844 37.5721 44.4615 37.5721 53.9621V106.708" stroke="black" stroke-width="7" stroke-linecap="round" stroke-linejoin="round"/>
<path d="M106.963 38.7699C106.963 29.2693 114.765 21.4921 124.296 21.4921C133.827 21.4921 141.629 29.2693 141.629 38.7699V123.623" fill="white"/>
<path d="M106.963 38.7699C106.963 29.2693 114.765 21.4921 124.296 21.4921C133.827 21.4921 141.629 29.2693 141.629 38.7699V123.623" stroke="black" stroke-width="7" stroke-linecap="round" stroke-linejoin="round"/>
<path d="M72.282 21.8687C72.282 12.3681 80.0841 4.59098 89.6151 4.59098C99.1462 4.59098 106.948 12.3681 106.948 21.8687V114.224" fill="white"/>
<path d="M72.282 21.8687C72.282 12.3681 80.0841 4.59098 89.6151 4.59098C99.1462 4.59098 106.948 12.3681 106.948 21.8687V114.224" stroke="black" stroke-width="7" stroke-linecap="round" stroke-linejoin="round"/>
<path d="M37.5867 113.804V20.1742C37.5867 10.6737 45.3888 2.89651 54.9198 2.89651C64.4509 2.89651 72.253 10.6737 72.253 20.1742V115.484" fill="white"/>
<path d="M37.5867 113.804V20.1742C37.5867 10.6737 45.3888 2.89651 54.9198 2.89651C64.4509 2.89651 72.253 10.6737 72.253 20.1742V115.484" stroke="black" stroke-width="7" stroke-linecap="round" stroke-linejoin="round"/>
<path d="M141.644 123.783V154.326" stroke="black" stroke-width="7" stroke-linecap="round" stroke-linejoin="round"/>
<path d="M2.90576 116.73V192.951C2.90576 201.829 5.86969 210.461 11.3326 217.47L15.5896 222.93C18.6117 226.812 20.2535 231.591 20.2535 236.515V276.661H134.859V232.648C134.859 225.175 137.837 218.021 143.126 212.735L195.038 160.988C201.78 154.268 201.78 143.262 195.038 136.542C188.297 129.822 177.254 129.822 170.513 136.542L158.468 148.548C154.633 152.371 149.431 154.515 143.997 154.515H110.944C103.941 154.515 97.0831 156.455 91.1262 160.134L76.786 170.025" fill="white"/>
<path d="M2.90576 116.73V192.951C2.90576 201.829 5.86969 210.461 11.3326 217.47L15.5896 222.93C18.6117 226.812 20.2535 231.591 20.2535 236.515V276.661H134.859V232.648C134.859 225.175 137.837 218.021 143.126 212.735L195.038 160.988C201.78 154.268 201.78 143.262 195.038 136.542C188.297 129.822 177.254 129.822 170.513 136.542L158.468 148.548C154.633 152.371 149.431 154.515 143.997 154.515H110.944C103.941 154.515 97.0831 156.455 91.1262 160.134L76.786 170.025" stroke="black" stroke-width="7" stroke-linecap="round" stroke-linejoin="round"/>
<path d="M134.844 259.977H20.239" stroke="black" stroke-width="7" stroke-linecap="round" stroke-linejoin="round"/>
</g>
<defs>
<clipPath id="clip0_17_7654">
<rect width="203" height="660" fill="white"/>
</clipPath>
</defs>
</svg>
