<svg width="160" height="430" viewBox="0 0 160 430" fill="none" xmlns="http://www.w3.org/2000/svg">
<g clip-path="url(#clip0_17_7664)">
<path d="M152.63 188.022H5.6438V569.099H152.63V188.022Z" fill="white" stroke="black" stroke-width="7" stroke-linecap="round" stroke-linejoin="round"/>
<path d="M48.9372 87.2144C43.0758 83.9939 40.7834 76.3054 40.7834 69.1535V21.8326C40.7834 11.3733 49.2564 2.90134 59.7171 2.90134C70.1777 2.90134 78.6507 11.3733 78.6507 21.8326V56.0975L78.7668 21.8326C78.7668 11.3733 87.2397 2.90134 97.7004 2.90134C108.161 2.90134 116.997 10.2127 116.997 20.6721V56.0975V21.8326C116.997 11.3733 125.47 2.90134 135.93 2.90134C146.391 2.90134 154.864 11.3733 154.864 21.8326V69.1535C154.864 73.4765 153.413 77.4659 150.976 80.6574" fill="white"/>
<path d="M48.9372 87.2144C43.0758 83.9939 40.7834 76.3054 40.7834 69.1535V21.8326C40.7834 11.3733 49.2564 2.90134 59.7171 2.90134C70.1777 2.90134 78.6507 11.3733 78.6507 21.8326V56.0975L78.7668 21.8326C78.7668 11.3733 87.2397 2.90134 97.7004 2.90134C108.161 2.90134 116.997 10.2127 116.997 20.6721V56.0975V21.8326C116.997 11.3733 125.47 2.90134 135.93 2.90134C146.391 2.90134 154.864 11.3733 154.864 21.8326V69.1535C154.864 73.4765 153.413 77.4659 150.976 80.6574" stroke="black" stroke-width="7" stroke-linecap="round" stroke-linejoin="round"/>
<path d="M8.85026 82.9204C8.85026 82.9204 -4.88931 106.305 12.6805 134.144C15.0889 137.959 16.4527 142.354 16.4527 146.866V187.906H140.109V148.505C140.109 144.748 141.545 141.15 144.113 138.409C151.353 130.648 164.715 111.223 151.469 82.9349C151.469 82.9349 138.02 55.6623 115.473 57.4176" fill="white"/>
<path d="M8.85026 82.9204C8.85026 82.9204 -4.88931 106.305 12.6805 134.144C15.0889 137.959 16.4527 142.354 16.4527 146.866V187.906H140.109V148.505C140.109 144.748 141.545 141.15 144.113 138.409C151.353 130.648 164.715 111.223 151.469 82.9349C151.469 82.9349 138.02 55.6623 115.473 57.4176" stroke="black" stroke-width="7" stroke-linecap="round" stroke-linejoin="round"/>
<path d="M97.7295 95.2802C97.7295 95.2802 64.5195 96.7308 66.7103 137.799L97.7295 95.2802Z" fill="white"/>
<path d="M97.7295 95.2802C97.7295 95.2802 64.5195 96.7308 66.7103 137.799" stroke="black" stroke-width="7" stroke-linecap="round" stroke-linejoin="round"/>
<path d="M140.109 171.31H16.4526" stroke="black" stroke-width="7" stroke-linecap="round" stroke-linejoin="round"/>
<path d="M115.473 95.2801H64.4468C53.9862 95.2801 45.5132 86.8082 45.5132 76.3489C45.5132 65.8895 53.9862 57.4176 64.4468 57.4176H115.473" fill="white"/>
<path d="M115.473 95.2801H64.4468C53.9862 95.2801 45.5132 86.8082 45.5132 76.3489C45.5132 65.8895 53.9862 57.4176 64.4468 57.4176H115.473" stroke="black" stroke-width="7" stroke-linecap="round" stroke-linejoin="round"/>
<path d="M21.8497 21.4409H21.8352C11.3785 21.4409 2.90161 29.9168 2.90161 40.3722V69.168C2.90161 79.6235 11.3785 88.0993 21.8352 88.0993H21.8497C32.3065 88.0993 40.7834 79.6235 40.7834 69.168V40.3722C40.7834 29.9168 32.3065 21.4409 21.8497 21.4409Z" fill="white" stroke="black" stroke-width="7" stroke-linecap="round" stroke-linejoin="round"/>
</g>
<defs>
<clipPath id="clip0_17_7664">
<rect width="160" height="572" fill="white"/>
</clipPath>
</defs>
</svg>
