<?xml version="1.0" encoding="utf-8"?>
<!-- Generator: Adobe Illustrator 27.5.0, SVG Export Plug-In . SVG Version: 6.00 Build 0)  -->
<svg version="1.1" id="Layer_1" xmlns="http://www.w3.org/2000/svg" xmlns:xlink="http://www.w3.org/1999/xlink" x="0px" y="0px"
	 viewBox="0 0 829.1 160" style="enable-background:new 0 0 829.1 160;" xml:space="preserve">
<style type="text/css">
	.st0{clip-path:url(#SVGID_00000008129858214499080670000014396222144084843702_);}
	.st1{fill:#FFFFFF;stroke:#000000;stroke-width:7;stroke-linecap:round;stroke-linejoin:round;}
	.st2{fill:#FFFFFF;}
	.st3{fill:none;stroke:#000000;stroke-width:7;stroke-linecap:round;stroke-linejoin:round;}
</style>
<g>
	<g>
		<defs>
			<rect id="SVGID_1_" width="829.1" height="160"/>
		</defs>
		<clipPath id="SVGID_00000022563028543052111710000012702196529938641801_">
			<use xlink:href="#SVGID_1_"  style="overflow:visible;"/>
		</clipPath>
		<g style="clip-path:url(#SVGID_00000022563028543052111710000012702196529938641801_);">
			<path class="st1" d="M641.1,7.4v147H3.9V7.4H641.1z"/>
			<path class="st2" d="M741.9,111.1c3.2,5.9,10.9,8.2,18.1,8.2h47.3c10.5,0,18.9-8.5,18.9-18.9c0-10.5-8.5-18.9-18.9-18.9H773
				l34.3-0.1c10.5,0,18.9-8.5,18.9-18.9c0-10.5-7.3-19.3-17.8-19.3H773h34.3c10.5,0,18.9-8.5,18.9-18.9c0-10.5-8.5-18.9-18.9-18.9
				H760c-4.3,0-8.3,1.5-11.5,3.9"/>
			<path class="st3" d="M741.9,111.1c3.2,5.9,10.9,8.2,18.1,8.2h47.3c10.5,0,18.9-8.5,18.9-18.9c0-10.5-8.5-18.9-18.9-18.9H773
				l34.3-0.1c10.5,0,18.9-8.5,18.9-18.9c0-10.5-7.3-19.3-17.8-19.3H773h34.3c10.5,0,18.9-8.5,18.9-18.9c0-10.5-8.5-18.9-18.9-18.9
				H760c-4.3,0-8.3,1.5-11.5,3.9"/>
			<path class="st2" d="M746.2,151.2c0,0-23.4,13.7-51.2-3.8c-3.8-2.4-8.2-3.8-12.7-3.8h-41V19.9h39.4c3.8,0,7.4-1.4,10.1-4
				c7.8-7.2,27.2-20.6,55.5-7.4c0,0,27.3,13.4,25.5,36"/>
			<path class="st3" d="M746.2,151.2c0,0-23.4,13.7-51.2-3.8c-3.8-2.4-8.2-3.8-12.7-3.8h-41V19.9h39.4c3.8,0,7.4-1.4,10.1-4
				c7.8-7.2,27.2-20.6,55.5-7.4c0,0,27.3,13.4,25.5,36"/>
			<path class="st2" d="M733.8,62.3c0,0-1.5,33.2-42.5,31L733.8,62.3z"/>
			<path class="st3" d="M733.8,62.3c0,0-1.5,33.2-42.5,31"/>
			<path class="st3" d="M657.8,19.9v123.6"/>
			<path class="st2" d="M733.8,44.5v51.1c0,10.5,8.5,18.9,18.9,18.9c10.5,0,19-8.5,19-18.9v-51"/>
			<path class="st3" d="M733.8,44.5v51.1c0,10.5,8.5,18.9,18.9,18.9c10.5,0,19-8.5,19-18.9v-51"/>
			<path class="st1" d="M807.7,138.2L807.7,138.2c0,10.4-8.5,18.9-19,18.9h-28.8c-10.5,0-18.9-8.5-18.9-18.9l0,0
				c0-10.5,8.5-18.9,18.9-18.9h28.8C799.2,119.2,807.7,127.7,807.7,138.2z"/>
		</g>
	</g>
</g>
</svg>
