<?xml version="1.0" encoding="utf-8"?>
<!-- Generator: Adobe Illustrator 27.5.0, SVG Export Plug-In . SVG Version: 6.00 Build 0)  -->
<svg version="1.1" id="Layer_1" xmlns="http://www.w3.org/2000/svg" xmlns:xlink="http://www.w3.org/1999/xlink" x="0px" y="0px"
	 viewBox="0 0 161.2 829.7" style="enable-background:new 0 0 161.2 829.7;" xml:space="preserve">
<style type="text/css">
	.st0{clip-path:url(#SVGID_00000120554595874035788800000011587211441590890125_);}
	.st1{fill:#FFFFFF;stroke:#000000;stroke-width:7;stroke-linecap:round;stroke-linejoin:round;}
	.st2{fill:#FFFFFF;}
	.st3{fill:none;stroke:#000000;stroke-width:7;stroke-linecap:round;stroke-linejoin:round;}
</style>
<g>
	<defs>
		<rect id="SVGID_1_" x="0.6" y="0.6" width="160" height="829.1"/>
	</defs>
	<clipPath id="SVGID_00000015339271937794513220000015664097601203287190_">
		<use xlink:href="#SVGID_1_"  style="overflow:visible;"/>
	</clipPath>
	<g style="clip-path:url(#SVGID_00000015339271937794513220000015664097601203287190_);">
		<path class="st1" d="M153.2,188.6H6.2v637.2h147V188.6z"/>
		<path class="st2" d="M49.5,87.8c-5.9-3.2-8.2-10.9-8.2-18.1V22.4c0-10.5,8.5-18.9,18.9-18.9c10.5,0,18.9,8.5,18.9,18.9v34.3
			l0.1-34.3c0-10.5,8.5-18.9,18.9-18.9c10.5,0,19.3,7.3,19.3,17.8v35.4V22.4c0-10.5,8.5-18.9,18.9-18.9c10.5,0,18.9,8.5,18.9,18.9
			v47.3c0,4.3-1.5,8.3-3.9,11.5"/>
		<path class="st3" d="M49.5,87.8c-5.9-3.2-8.2-10.9-8.2-18.1V22.4c0-10.5,8.5-18.9,18.9-18.9c10.5,0,18.9,8.5,18.9,18.9v34.3
			l0.1-34.3c0-10.5,8.5-18.9,18.9-18.9c10.5,0,19.3,7.3,19.3,17.8v35.4V22.4c0-10.5,8.5-18.9,18.9-18.9c10.5,0,18.9,8.5,18.9,18.9
			v47.3c0,4.3-1.5,8.3-3.9,11.5"/>
		<path class="st2" d="M9.4,83.5c0,0-13.7,23.4,3.8,51.2c2.4,3.8,3.8,8.2,3.8,12.7v41h123.7v-39.4c0-3.8,1.4-7.4,4-10.1
			c7.2-7.8,20.6-27.2,7.4-55.5c0,0-13.4-27.3-36-25.5"/>
		<path class="st3" d="M9.4,83.5c0,0-13.7,23.4,3.8,51.2c2.4,3.8,3.8,8.2,3.8,12.7v41h123.7v-39.4c0-3.8,1.4-7.4,4-10.1
			c7.2-7.8,20.6-27.2,7.4-55.5c0,0-13.4-27.3-36-25.5"/>
		<path class="st2" d="M98.3,95.9c0,0-33.2,1.5-31,42.5L98.3,95.9z"/>
		<path class="st3" d="M98.3,95.9c0,0-33.2,1.5-31,42.5"/>
		<path class="st3" d="M140.7,171.9H17.1"/>
		<path class="st2" d="M116.1,95.9H65c-10.5,0-18.9-8.5-18.9-18.9C46.1,66.5,54.6,58,65,58h51"/>
		<path class="st3" d="M116.1,95.9H65c-10.5,0-18.9-8.5-18.9-18.9C46.1,66.5,54.6,58,65,58h51"/>
		<path class="st1" d="M22.4,22L22.4,22C12,22,3.5,30.5,3.5,41v28.8c0,10.5,8.5,18.9,18.9,18.9h0c10.5,0,18.9-8.5,18.9-18.9V41
			C41.4,30.5,32.9,22,22.4,22z"/>
	</g>
</g>
</svg>
