<?xml version="1.0" encoding="utf-8"?>
<!-- Generator: Adobe Illustrator 27.4.0, SVG Export Plug-In . SVG Version: 6.00 Build 0)  -->
<svg version="1.1" id="Layer_1" xmlns="http://www.w3.org/2000/svg" xmlns:xlink="http://www.w3.org/1999/xlink" x="0px" y="0px"
	 viewBox="0 0 1599 186" style="enable-background:new 0 0 1599 186;" xml:space="preserve">
<style type="text/css">
	.st0{opacity:0.15;}
	.st1{fill:none;stroke:#FFFFFF;stroke-width:4;stroke-linecap:round;stroke-linejoin:round;stroke-opacity:0.9;}
</style>
<g class="st0">
	<path class="st1" d="M18.8,119.7V85.9c0-3.4,2.8-6.2,6.2-6.2s6.2,2.8,6.2,6.2v34.5"/>
	<path class="st1" d="M6.3,123.3V98.1c0-3.4,2.8-6.2,6.2-6.2c3.4,0,6.2,2.8,6.2,6.2v19.1"/>
	<path class="st1" d="M31.3,86.5c0-3.4,2.8-6.2,6.2-6.2c3.4,0,6.2,2.8,6.2,6.2v33.4"/>
	<path class="st1" d="M43.8,92.6c0-3.4,2.8-6.2,6.2-6.2c3.4,0,6.2,2.8,6.2,6.2v30.7"/>
	<path class="st1" d="M56.3,123.4v11"/>
	<path class="st1" d="M6.3,120.8v27.6c0,3.2,1.1,6.3,3,8.9l1.5,2c1.1,1.4,1.7,3.1,1.7,4.9v14.5h41.3v-15.9c0-2.7,1.1-5.3,3-7.2
		l18.7-18.7c2.4-2.4,2.4-6.4,0-8.8c-2.4-2.4-6.4-2.4-8.8,0l-4.3,4.3c-1.4,1.4-3.3,2.2-5.2,2.2H45.2c-2.5,0-5,0.7-7.1,2l-5.2,3.6"/>
	<path class="st1" d="M80.6,47.3L80.6,47.3c-3.7,0-6.6,2.9-6.6,6.6v10c0,3.6,3,6.6,6.6,6.6h0c3.7,0,6.6-2.9,6.6-6.6v-10
		C87.3,50.2,84.3,47.3,80.6,47.3z"/>
	<path class="st1" d="M90.2,70.1c-2.1-1.1-2.9-3.8-2.9-6.3V47.4c0-3.6,3-6.6,6.6-6.6c3.7,0,6.6,2.9,6.6,6.6v12.4"/>
	<path class="st1" d="M113.5,72.9H95.6c-3.7,0-6.6-2.9-6.6-6.6c0-3.6,3-6.6,6.6-6.6h17.9"/>
	<path class="st1" d="M100,44.7l-3.9-29.1c-0.5-3.6,2.1-6.9,5.7-7.4c3.6-0.5,7,2.1,7.5,5.7l5,37.6"/>
	<path class="st1" d="M114.7,51.4l5.5-37.6c0.5-3.6,3.9-6.1,7.5-5.6c3.6,0.5,6.2,3.8,5.6,7.4l-2.7,18.9l-1.4,9.8
		c0,0-3.2,16.8-2.3,26.1"/>
	<path class="st1" d="M76.1,68.6c0,0-4.8,8.1,1.3,17.8c0.8,1.3,1.3,2.9,1.3,4.4v14.3h43.4V91.4c0-1.3,0.5-2.6,1.4-3.5
		c2.5-2.7,7.2-9.4,2.6-19.3c0,0-4.7-9.5-12.6-8.9"/>
	<path class="st1" d="M107.3,72.9c0,0-11.7,0.5-10.9,14.8"/>
	<path class="st1" d="M8.7,8.5L8.7,8.5C5,8.5,2,11.5,2,15.2v10.2c0,3.7,3,6.7,6.7,6.7h0c3.7,0,6.7-3,6.7-6.7V15.2
		C15.4,11.5,12.4,8.5,8.7,8.5z"/>
	<path class="st1" d="M42.3,20.8V8.7C42.3,5,45.3,2,49,2c3.7,0,6.7,3,6.7,6.7v16.7c0,1.5-0.5,2.9-1.4,4.1"/>
	<path class="st1" d="M18.2,31.8c-2.1-1.1-2.9-3.9-2.9-6.4V8.7c0-3.7,3-6.7,6.7-6.7s6.7,3,6.7,6.7v12.1"/>
	<path class="st1" d="M28.8,8.7c0-3.7,3-6.7,6.7-6.7c3.7,0,6.8,2.6,6.8,6.3"/>
	<path class="st1" d="M41.7,34.6h-18c-3.7,0-6.7-3-6.7-6.7c0-3.7,3-6.7,6.7-6.7h18"/>
	<path class="st1" d="M4.1,30.2c0,0-4.8,8.3,1.4,18.1c0.9,1.3,1.3,2.9,1.3,4.5v14.5h43.6V53.4c0-1.3,0.5-2.6,1.4-3.6
		c2.6-2.7,7.3-9.6,2.6-19.6c0,0-4.7-9.6-12.7-9"/>
	<path class="st1" d="M35.5,34.6c0,0-11.7,0.5-10.9,15"/>
	<path class="st1" d="M99.7,124.5L99.7,124.5c-3.7,0-6.7,3-6.7,6.7v10.2c0,3.7,3,6.7,6.7,6.7h0c3.7,0,6.7-3,6.7-6.7v-10.2
		C106.4,127.5,103.4,124.5,99.7,124.5z"/>
	<path class="st1" d="M133.3,136.8v-12.1c0-3.7,3-6.7,6.7-6.7s6.7,3,6.7,6.7v16.7c0,1.5-0.5,2.9-1.4,4.1"/>
	<path class="st1" d="M109.2,147.8c-2.1-1.1-2.9-3.9-2.9-6.4v-16.7c0-3.7,3-6.7,6.7-6.7s6.7,3,6.7,6.7v12.1"/>
	<path class="st1" d="M119.8,124.7c0-3.7,3-6.7,6.7-6.7c3.7,0,6.8,2.6,6.8,6.3"/>
	<path class="st1" d="M132.7,150.6h-18c-3.7,0-6.7-3-6.7-6.7s3-6.7,6.7-6.7h18"/>
	<path class="st1" d="M95.1,146.2c0,0-4.8,8.3,1.4,18.1c0.8,1.3,1.3,2.9,1.3,4.5v14.5h43.6v-13.9c0-1.3,0.5-2.6,1.4-3.6
		c2.6-2.7,7.3-9.6,2.6-19.6c0,0-4.7-9.6-12.7-9"/>
	<path class="st1" d="M126.5,150.6c0,0-11.7,0.5-10.9,15"/>
	<path class="st1" d="M179.8,119.7V85.9c0-3.4,2.8-6.2,6.2-6.2c3.4,0,6.2,2.8,6.2,6.2v34.5"/>
	<path class="st1" d="M167.3,123.3V98.1c0-3.4,2.8-6.2,6.2-6.2s6.2,2.8,6.2,6.2v19.1"/>
	<path class="st1" d="M192.3,86.5c0-3.4,2.8-6.2,6.2-6.2s6.2,2.8,6.2,6.2v33.4"/>
	<path class="st1" d="M204.8,92.6c0-3.4,2.8-6.2,6.2-6.2c3.4,0,6.2,2.8,6.2,6.2v30.7"/>
	<path class="st1" d="M217.3,123.4v11"/>
	<path class="st1" d="M167.3,120.8v27.6c0,3.2,1.1,6.3,3,8.9l1.5,2c1.1,1.4,1.7,3.1,1.7,4.9v14.5h41.3v-15.9c0-2.7,1.1-5.3,3-7.2
		l18.7-18.7c2.4-2.4,2.4-6.4,0-8.8c-2.4-2.4-6.4-2.4-8.8,0l-4.3,4.3c-1.4,1.4-3.3,2.2-5.2,2.2h-11.9c-2.5,0-5,0.7-7.1,2l-5.2,3.6"/>
	<path class="st1" d="M241.6,47.3L241.6,47.3c-3.7,0-6.6,2.9-6.6,6.6v10c0,3.6,3,6.6,6.6,6.6h0c3.7,0,6.6-2.9,6.6-6.6v-10
		C248.3,50.2,245.3,47.3,241.6,47.3z"/>
	<path class="st1" d="M251.2,70.1c-2.1-1.1-2.9-3.8-2.9-6.3V47.4c0-3.6,3-6.6,6.6-6.6c3.7,0,6.6,2.9,6.6,6.6v12.4"/>
	<path class="st1" d="M274.5,72.9h-17.9c-3.7,0-6.6-2.9-6.6-6.6c0-3.6,3-6.6,6.6-6.6h17.9"/>
	<path class="st1" d="M261,44.7l-3.9-29.1c-0.5-3.6,2.1-6.9,5.7-7.4c3.6-0.5,7,2.1,7.5,5.7l5,37.6"/>
	<path class="st1" d="M275.7,51.4l5.5-37.6c0.5-3.6,3.9-6.1,7.5-5.6s6.2,3.8,5.6,7.4l-2.7,18.9l-1.4,9.8c0,0-3.2,16.8-2.3,26.1"/>
	<path class="st1" d="M237.1,68.6c0,0-4.8,8.1,1.3,17.8c0.8,1.3,1.3,2.9,1.3,4.4v14.3h43.4V91.4c0-1.3,0.5-2.6,1.4-3.5
		c2.5-2.7,7.2-9.4,2.6-19.3c0,0-4.7-9.5-12.6-8.9"/>
	<path class="st1" d="M268.3,72.9c0,0-11.7,0.5-10.9,14.8"/>
	<path class="st1" d="M169.7,8.5L169.7,8.5c-3.7,0-6.7,3-6.7,6.7v10.2c0,3.7,3,6.7,6.7,6.7h0c3.7,0,6.7-3,6.7-6.7V15.2
		C176.4,11.5,173.4,8.5,169.7,8.5z"/>
	<path class="st1" d="M203.3,20.8V8.7c0-3.7,3-6.7,6.7-6.7s6.7,3,6.7,6.7v16.7c0,1.5-0.5,2.9-1.4,4.1"/>
	<path class="st1" d="M179.2,31.8c-2.1-1.1-2.9-3.9-2.9-6.4V8.7c0-3.7,3-6.7,6.7-6.7s6.7,3,6.7,6.7v12.1"/>
	<path class="st1" d="M189.8,8.7c0-3.7,3-6.7,6.7-6.7s6.8,2.6,6.8,6.3"/>
	<path class="st1" d="M202.7,34.6h-18c-3.7,0-6.7-3-6.7-6.7c0-3.7,3-6.7,6.7-6.7h18"/>
	<path class="st1" d="M165.1,30.2c0,0-4.8,8.3,1.4,18.1c0.8,1.3,1.3,2.9,1.3,4.5v14.5h43.6V53.4c0-1.3,0.5-2.6,1.4-3.6
		c2.6-2.7,7.3-9.6,2.6-19.6c0,0-4.7-9.6-12.7-9"/>
	<path class="st1" d="M196.5,34.6c0,0-11.7,0.5-10.9,15"/>
	<path class="st1" d="M260.7,124.5L260.7,124.5c-3.7,0-6.7,3-6.7,6.7v10.2c0,3.7,3,6.7,6.7,6.7h0c3.7,0,6.7-3,6.7-6.7v-10.2
		C267.4,127.5,264.4,124.5,260.7,124.5z"/>
	<path class="st1" d="M294.3,136.8v-12.1c0-3.7,3-6.7,6.7-6.7c3.7,0,6.7,3,6.7,6.7v16.7c0,1.5-0.5,2.9-1.4,4.1"/>
	<path class="st1" d="M270.2,147.8c-2.1-1.1-2.9-3.9-2.9-6.4v-16.7c0-3.7,3-6.7,6.7-6.7c3.7,0,6.7,3,6.7,6.7v12.1"/>
	<path class="st1" d="M280.8,124.7c0-3.7,3-6.7,6.7-6.7c3.7,0,6.8,2.6,6.8,6.3"/>
	<path class="st1" d="M293.7,150.6h-18c-3.7,0-6.7-3-6.7-6.7s3-6.7,6.7-6.7h18"/>
	<path class="st1" d="M256.1,146.2c0,0-4.8,8.3,1.4,18.1c0.9,1.3,1.3,2.9,1.3,4.5v14.5h43.6v-13.9c0-1.3,0.5-2.6,1.4-3.6
		c2.6-2.7,7.3-9.6,2.6-19.6c0,0-4.7-9.6-12.7-9"/>
	<path class="st1" d="M287.5,150.6c0,0-11.7,0.5-10.9,15"/>
	<path class="st1" d="M340.8,119.7V85.9c0-3.4,2.8-6.2,6.2-6.2s6.2,2.8,6.2,6.2v34.5"/>
	<path class="st1" d="M328.3,123.3V98.1c0-3.4,2.8-6.2,6.2-6.2s6.2,2.8,6.2,6.2v19.1"/>
	<path class="st1" d="M353.3,86.5c0-3.4,2.8-6.2,6.2-6.2s6.2,2.8,6.2,6.2v33.4"/>
	<path class="st1" d="M365.8,92.6c0-3.4,2.8-6.2,6.2-6.2s6.2,2.8,6.2,6.2v30.7"/>
	<path class="st1" d="M378.3,123.4v11"/>
	<path class="st1" d="M328.3,120.8v27.6c0,3.2,1.1,6.3,3,8.9l1.5,2c1.1,1.4,1.7,3.1,1.7,4.9v14.5h41.3v-15.9c0-2.7,1.1-5.3,3-7.2
		l18.7-18.7c2.4-2.4,2.4-6.4,0-8.8c-2.4-2.4-6.4-2.4-8.8,0l-4.3,4.3c-1.4,1.4-3.3,2.2-5.2,2.2h-11.9c-2.5,0-5,0.7-7.1,2l-5.2,3.6"/>
	<path class="st1" d="M402.6,47.3L402.6,47.3c-3.7,0-6.6,2.9-6.6,6.6v10c0,3.6,3,6.6,6.6,6.6h0c3.7,0,6.6-2.9,6.6-6.6v-10
		C409.3,50.2,406.3,47.3,402.6,47.3z"/>
	<path class="st1" d="M412.2,70.1c-2.1-1.1-2.9-3.8-2.9-6.3V47.4c0-3.6,3-6.6,6.6-6.6c3.7,0,6.6,2.9,6.6,6.6v12.4"/>
	<path class="st1" d="M435.5,72.9h-17.9c-3.7,0-6.6-2.9-6.6-6.6c0-3.6,3-6.6,6.6-6.6h17.9"/>
	<path class="st1" d="M422,44.7l-3.9-29.1c-0.5-3.6,2.1-6.9,5.7-7.4c3.6-0.5,7,2.1,7.5,5.7l5,37.6"/>
	<path class="st1" d="M436.7,51.4l5.5-37.6c0.5-3.6,3.9-6.1,7.5-5.6s6.2,3.8,5.6,7.4l-2.7,18.9l-1.4,9.8c0,0-3.2,16.8-2.3,26.1"/>
	<path class="st1" d="M398.1,68.6c0,0-4.8,8.1,1.3,17.8c0.8,1.3,1.3,2.9,1.3,4.4v14.3h43.4V91.4c0-1.3,0.5-2.6,1.4-3.5
		c2.5-2.7,7.2-9.4,2.6-19.3c0,0-4.7-9.5-12.6-8.9"/>
	<path class="st1" d="M429.3,72.9c0,0-11.7,0.5-10.9,14.8"/>
	<path class="st1" d="M330.7,8.5L330.7,8.5c-3.7,0-6.7,3-6.7,6.7v10.2c0,3.7,3,6.7,6.7,6.7h0c3.7,0,6.7-3,6.7-6.7V15.2
		C337.4,11.5,334.4,8.5,330.7,8.5z"/>
	<path class="st1" d="M364.3,20.8V8.7c0-3.7,3-6.7,6.7-6.7c3.7,0,6.7,3,6.7,6.7v16.7c0,1.5-0.5,2.9-1.4,4.1"/>
	<path class="st1" d="M340.2,31.8c-2.1-1.1-2.9-3.9-2.9-6.4V8.7c0-3.7,3-6.7,6.7-6.7c3.7,0,6.7,3,6.7,6.7v12.1"/>
	<path class="st1" d="M350.8,8.7c0-3.7,3-6.7,6.7-6.7c3.7,0,6.8,2.6,6.8,6.3"/>
	<path class="st1" d="M363.7,34.6h-18c-3.7,0-6.7-3-6.7-6.7c0-3.7,3-6.7,6.7-6.7h18"/>
	<path class="st1" d="M326.1,30.2c0,0-4.8,8.3,1.4,18.1c0.9,1.3,1.3,2.9,1.3,4.5v14.5h43.6V53.4c0-1.3,0.5-2.6,1.4-3.6
		c2.6-2.7,7.3-9.6,2.6-19.6c0,0-4.7-9.6-12.7-9"/>
	<path class="st1" d="M357.5,34.6c0,0-11.7,0.5-10.9,15"/>
	<path class="st1" d="M421.7,124.5L421.7,124.5c-3.7,0-6.7,3-6.7,6.7v10.2c0,3.7,3,6.7,6.7,6.7h0c3.7,0,6.7-3,6.7-6.7v-10.2
		C428.4,127.5,425.4,124.5,421.7,124.5z"/>
	<path class="st1" d="M455.3,136.8v-12.1c0-3.7,3-6.7,6.7-6.7c3.7,0,6.7,3,6.7,6.7v16.7c0,1.5-0.5,2.9-1.4,4.1"/>
	<path class="st1" d="M431.2,147.8c-2.1-1.1-2.9-3.9-2.9-6.4v-16.7c0-3.7,3-6.7,6.7-6.7c3.7,0,6.7,3,6.7,6.7v12.1"/>
	<path class="st1" d="M441.8,124.7c0-3.7,3-6.7,6.7-6.7c3.7,0,6.8,2.6,6.8,6.3"/>
	<path class="st1" d="M454.7,150.6h-18c-3.7,0-6.7-3-6.7-6.7s3-6.7,6.7-6.7h18"/>
	<path class="st1" d="M417.1,146.2c0,0-4.8,8.3,1.4,18.1c0.9,1.3,1.3,2.9,1.3,4.5v14.5h43.6v-13.9c0-1.3,0.5-2.6,1.4-3.6
		c2.6-2.7,7.3-9.6,2.6-19.6c0,0-4.7-9.6-12.7-9"/>
	<path class="st1" d="M448.5,150.6c0,0-11.7,0.5-10.9,15"/>
	<path class="st1" d="M501.8,119.7V85.9c0-3.4,2.8-6.2,6.2-6.2s6.2,2.8,6.2,6.2v34.5"/>
	<path class="st1" d="M489.3,123.3V98.1c0-3.4,2.8-6.2,6.2-6.2s6.2,2.8,6.2,6.2v19.1"/>
	<path class="st1" d="M514.3,86.5c0-3.4,2.8-6.2,6.2-6.2c3.4,0,6.2,2.8,6.2,6.2v33.4"/>
	<path class="st1" d="M526.8,92.6c0-3.4,2.8-6.2,6.2-6.2s6.2,2.8,6.2,6.2v30.7"/>
	<path class="st1" d="M539.3,123.4v11"/>
	<path class="st1" d="M489.3,120.8v27.6c0,3.2,1.1,6.3,3,8.9l1.5,2c1.1,1.4,1.7,3.1,1.7,4.9v14.5h41.3v-15.9c0-2.7,1.1-5.3,3-7.2
		l18.7-18.7c2.4-2.4,2.4-6.4,0-8.8c-2.4-2.4-6.4-2.4-8.8,0l-4.3,4.3c-1.4,1.4-3.3,2.2-5.2,2.2h-11.9c-2.5,0-5,0.7-7.1,2l-5.2,3.6"/>
	<path class="st1" d="M563.6,47.3L563.6,47.3c-3.7,0-6.6,2.9-6.6,6.6v10c0,3.6,3,6.6,6.6,6.6h0c3.7,0,6.6-2.9,6.6-6.6v-10
		C570.3,50.2,567.3,47.3,563.6,47.3z"/>
	<path class="st1" d="M573.2,70.1c-2.1-1.1-2.9-3.8-2.9-6.3V47.4c0-3.6,3-6.6,6.6-6.6c3.7,0,6.6,2.9,6.6,6.6v12.4"/>
	<path class="st1" d="M596.5,72.9h-17.9c-3.7,0-6.6-2.9-6.6-6.6c0-3.6,3-6.6,6.6-6.6h17.9"/>
	<path class="st1" d="M583,44.7l-3.9-29.1c-0.5-3.6,2.1-6.9,5.7-7.4c3.6-0.5,7,2.1,7.5,5.7l5,37.6"/>
	<path class="st1" d="M597.7,51.4l5.5-37.6c0.5-3.6,3.9-6.1,7.5-5.6c3.6,0.5,6.2,3.8,5.6,7.4l-2.7,18.9l-1.4,9.8
		c0,0-3.2,16.8-2.3,26.1"/>
	<path class="st1" d="M559.1,68.6c0,0-4.8,8.1,1.3,17.8c0.8,1.3,1.3,2.9,1.3,4.4v14.3h43.4V91.4c0-1.3,0.5-2.6,1.4-3.5
		c2.5-2.7,7.2-9.4,2.6-19.3c0,0-4.7-9.5-12.6-8.9"/>
	<path class="st1" d="M590.3,72.9c0,0-11.7,0.5-10.9,14.8"/>
	<path class="st1" d="M491.7,8.5L491.7,8.5c-3.7,0-6.7,3-6.7,6.7v10.2c0,3.7,3,6.7,6.7,6.7h0c3.7,0,6.7-3,6.7-6.7V15.2
		C498.4,11.5,495.4,8.5,491.7,8.5z"/>
	<path class="st1" d="M525.3,20.8V8.7c0-3.7,3-6.7,6.7-6.7c3.7,0,6.7,3,6.7,6.7v16.7c0,1.5-0.5,2.9-1.4,4.1"/>
	<path class="st1" d="M501.2,31.8c-2.1-1.1-2.9-3.9-2.9-6.4V8.7c0-3.7,3-6.7,6.7-6.7c3.7,0,6.7,3,6.7,6.7v12.1"/>
	<path class="st1" d="M511.8,8.7c0-3.7,3-6.7,6.7-6.7s6.8,2.6,6.8,6.3"/>
	<path class="st1" d="M524.7,34.6h-18c-3.7,0-6.7-3-6.7-6.7c0-3.7,3-6.7,6.7-6.7h18"/>
	<path class="st1" d="M487.1,30.2c0,0-4.8,8.3,1.4,18.1c0.9,1.3,1.3,2.9,1.3,4.5v14.5h43.6V53.4c0-1.3,0.5-2.6,1.4-3.6
		c2.6-2.7,7.3-9.6,2.6-19.6c0,0-4.7-9.6-12.7-9"/>
	<path class="st1" d="M518.5,34.6c0,0-11.7,0.5-10.9,15"/>
	<path class="st1" d="M582.7,124.5L582.7,124.5c-3.7,0-6.7,3-6.7,6.7v10.2c0,3.7,3,6.7,6.7,6.7h0c3.7,0,6.7-3,6.7-6.7v-10.2
		C589.4,127.5,586.4,124.5,582.7,124.5z"/>
	<path class="st1" d="M616.3,136.8v-12.1c0-3.7,3-6.7,6.7-6.7c3.7,0,6.7,3,6.7,6.7v16.7c0,1.5-0.5,2.9-1.4,4.1"/>
	<path class="st1" d="M592.2,147.8c-2.1-1.1-2.9-3.9-2.9-6.4v-16.7c0-3.7,3-6.7,6.7-6.7s6.7,3,6.7,6.7v12.1"/>
	<path class="st1" d="M602.8,124.7c0-3.7,3-6.7,6.7-6.7s6.8,2.6,6.8,6.3"/>
	<path class="st1" d="M615.7,150.6h-18c-3.7,0-6.7-3-6.7-6.7s3-6.7,6.7-6.7h18"/>
	<path class="st1" d="M578.1,146.2c0,0-4.8,8.3,1.4,18.1c0.9,1.3,1.3,2.9,1.3,4.5v14.5h43.6v-13.9c0-1.3,0.5-2.6,1.4-3.6
		c2.6-2.7,7.3-9.6,2.6-19.6c0,0-4.7-9.6-12.7-9"/>
	<path class="st1" d="M609.5,150.6c0,0-11.7,0.5-10.9,15"/>
	<path class="st1" d="M662.8,119.7V85.9c0-3.4,2.8-6.2,6.2-6.2s6.2,2.8,6.2,6.2v34.5"/>
	<path class="st1" d="M650.3,123.3V98.1c0-3.4,2.8-6.2,6.2-6.2s6.2,2.8,6.2,6.2v19.1"/>
	<path class="st1" d="M675.3,86.5c0-3.4,2.8-6.2,6.2-6.2c3.4,0,6.2,2.8,6.2,6.2v33.4"/>
	<path class="st1" d="M687.8,92.6c0-3.4,2.8-6.2,6.2-6.2s6.2,2.8,6.2,6.2v30.7"/>
	<path class="st1" d="M700.3,123.4v11"/>
	<path class="st1" d="M650.3,120.8v27.6c0,3.2,1.1,6.3,3,8.9l1.5,2c1.1,1.4,1.7,3.1,1.7,4.9v14.5h41.3v-15.9c0-2.7,1.1-5.3,3-7.2
		l18.7-18.7c2.4-2.4,2.4-6.4,0-8.8c-2.4-2.4-6.4-2.4-8.8,0l-4.3,4.3c-1.4,1.4-3.3,2.2-5.2,2.2h-11.9c-2.5,0-5,0.7-7.1,2l-5.2,3.6"/>
	<path class="st1" d="M724.6,47.3L724.6,47.3c-3.7,0-6.6,2.9-6.6,6.6v10c0,3.6,3,6.6,6.6,6.6h0c3.7,0,6.6-2.9,6.6-6.6v-10
		C731.3,50.2,728.3,47.3,724.6,47.3z"/>
	<path class="st1" d="M734.2,70.1c-2.1-1.1-2.9-3.8-2.9-6.3V47.4c0-3.6,3-6.6,6.6-6.6c3.7,0,6.6,2.9,6.6,6.6v12.4"/>
	<path class="st1" d="M757.5,72.9h-17.9c-3.7,0-6.6-2.9-6.6-6.6c0-3.6,3-6.6,6.6-6.6h17.9"/>
	<path class="st1" d="M744,44.7l-3.9-29.1c-0.5-3.6,2.1-6.9,5.7-7.4c3.6-0.5,7,2.1,7.5,5.7l5,37.6"/>
	<path class="st1" d="M758.7,51.4l5.5-37.6c0.5-3.6,3.9-6.1,7.5-5.6c3.6,0.5,6.2,3.8,5.6,7.4l-2.7,18.9l-1.4,9.8
		c0,0-3.2,16.8-2.3,26.1"/>
	<path class="st1" d="M720.1,68.6c0,0-4.8,8.1,1.3,17.8c0.8,1.3,1.3,2.9,1.3,4.4v14.3h43.4V91.4c0-1.3,0.5-2.6,1.4-3.5
		c2.5-2.7,7.2-9.4,2.6-19.3c0,0-4.7-9.5-12.6-8.9"/>
	<path class="st1" d="M751.3,72.9c0,0-11.7,0.5-10.9,14.8"/>
	<path class="st1" d="M652.7,8.5L652.7,8.5c-3.7,0-6.7,3-6.7,6.7v10.2c0,3.7,3,6.7,6.7,6.7h0c3.7,0,6.7-3,6.7-6.7V15.2
		C659.4,11.5,656.4,8.5,652.7,8.5z"/>
	<path class="st1" d="M686.3,20.8V8.7c0-3.7,3-6.7,6.7-6.7c3.7,0,6.7,3,6.7,6.7v16.7c0,1.5-0.5,2.9-1.4,4.1"/>
	<path class="st1" d="M662.2,31.8c-2.1-1.1-2.9-3.9-2.9-6.4V8.7c0-3.7,3-6.7,6.7-6.7s6.7,3,6.7,6.7v12.1"/>
	<path class="st1" d="M672.8,8.7c0-3.7,3-6.7,6.7-6.7s6.8,2.6,6.8,6.3"/>
	<path class="st1" d="M685.7,34.6h-18c-3.7,0-6.7-3-6.7-6.7c0-3.7,3-6.7,6.7-6.7h18"/>
	<path class="st1" d="M648.1,30.2c0,0-4.8,8.3,1.4,18.1c0.9,1.3,1.3,2.9,1.3,4.5v14.5h43.6V53.4c0-1.3,0.5-2.6,1.4-3.6
		c2.6-2.7,7.3-9.6,2.6-19.6c0,0-4.7-9.6-12.7-9"/>
	<path class="st1" d="M679.5,34.6c0,0-11.7,0.5-10.9,15"/>
	<path class="st1" d="M743.7,124.5L743.7,124.5c-3.7,0-6.7,3-6.7,6.7v10.2c0,3.7,3,6.7,6.7,6.7h0c3.7,0,6.7-3,6.7-6.7v-10.2
		C750.4,127.5,747.4,124.5,743.7,124.5z"/>
	<path class="st1" d="M777.3,136.8v-12.1c0-3.7,3-6.7,6.7-6.7c3.7,0,6.7,3,6.7,6.7v16.7c0,1.5-0.5,2.9-1.4,4.1"/>
	<path class="st1" d="M753.2,147.8c-2.1-1.1-2.9-3.9-2.9-6.4v-16.7c0-3.7,3-6.7,6.7-6.7s6.7,3,6.7,6.7v12.1"/>
	<path class="st1" d="M763.8,124.7c0-3.7,3-6.7,6.7-6.7s6.8,2.6,6.8,6.3"/>
	<path class="st1" d="M776.7,150.6h-18c-3.7,0-6.7-3-6.7-6.7s3-6.7,6.7-6.7h18"/>
	<path class="st1" d="M739.1,146.2c0,0-4.8,8.3,1.4,18.1c0.9,1.3,1.3,2.9,1.3,4.5v14.5h43.6v-13.9c0-1.3,0.5-2.6,1.4-3.6
		c2.6-2.7,7.3-9.6,2.6-19.6c0,0-4.7-9.6-12.7-9"/>
	<path class="st1" d="M770.5,150.6c0,0-11.7,0.5-10.9,15"/>
	<path class="st1" d="M823.8,119.7V85.9c0-3.4,2.8-6.2,6.2-6.2s6.2,2.8,6.2,6.2v34.5"/>
	<path class="st1" d="M811.3,123.3V98.1c0-3.4,2.8-6.2,6.2-6.2s6.2,2.8,6.2,6.2v19.1"/>
	<path class="st1" d="M836.3,86.5c0-3.4,2.8-6.2,6.2-6.2c3.4,0,6.2,2.8,6.2,6.2v33.4"/>
	<path class="st1" d="M848.8,92.6c0-3.4,2.8-6.2,6.2-6.2s6.2,2.8,6.2,6.2v30.7"/>
	<path class="st1" d="M861.3,123.4v11"/>
	<path class="st1" d="M811.3,120.8v27.6c0,3.2,1.1,6.3,3,8.9l1.5,2c1.1,1.4,1.7,3.1,1.7,4.9v14.5h41.3v-15.9c0-2.7,1.1-5.3,3-7.2
		l18.7-18.7c2.4-2.4,2.4-6.4,0-8.8c-2.4-2.4-6.4-2.4-8.8,0l-4.3,4.3c-1.4,1.4-3.3,2.2-5.2,2.2h-11.9c-2.5,0-5,0.7-7.1,2l-5.2,3.6"/>
	<path class="st1" d="M885.6,47.3L885.6,47.3c-3.7,0-6.6,2.9-6.6,6.6v10c0,3.6,3,6.6,6.6,6.6h0c3.7,0,6.6-2.9,6.6-6.6v-10
		C892.3,50.2,889.3,47.3,885.6,47.3z"/>
	<path class="st1" d="M895.2,70.1c-2.1-1.1-2.9-3.8-2.9-6.3V47.4c0-3.6,3-6.6,6.6-6.6c3.7,0,6.6,2.9,6.6,6.6v12.4"/>
	<path class="st1" d="M918.5,72.9h-17.9c-3.7,0-6.6-2.9-6.6-6.6c0-3.6,3-6.6,6.6-6.6h17.9"/>
	<path class="st1" d="M905,44.7l-3.9-29.1c-0.5-3.6,2.1-6.9,5.7-7.4c3.6-0.5,7,2.1,7.5,5.7l5,37.6"/>
	<path class="st1" d="M919.7,51.4l5.5-37.6c0.5-3.6,3.9-6.1,7.5-5.6c3.6,0.5,6.2,3.8,5.6,7.4l-2.7,18.9l-1.4,9.8
		c0,0-3.2,16.8-2.3,26.1"/>
	<path class="st1" d="M881.1,68.6c0,0-4.8,8.1,1.3,17.8c0.8,1.3,1.3,2.9,1.3,4.4v14.3h43.4V91.4c0-1.3,0.5-2.6,1.4-3.5
		c2.5-2.7,7.2-9.4,2.6-19.3c0,0-4.7-9.5-12.6-8.9"/>
	<path class="st1" d="M912.3,72.9c0,0-11.7,0.5-10.9,14.8"/>
	<path class="st1" d="M813.7,8.5L813.7,8.5c-3.7,0-6.7,3-6.7,6.7v10.2c0,3.7,3,6.7,6.7,6.7h0c3.7,0,6.7-3,6.7-6.7V15.2
		C820.4,11.5,817.4,8.5,813.7,8.5z"/>
	<path class="st1" d="M847.3,20.8V8.7c0-3.7,3-6.7,6.7-6.7c3.7,0,6.7,3,6.7,6.7v16.7c0,1.5-0.5,2.9-1.4,4.1"/>
	<path class="st1" d="M823.2,31.8c-2.1-1.1-2.9-3.9-2.9-6.4V8.7c0-3.7,3-6.7,6.7-6.7s6.7,3,6.7,6.7v12.1"/>
	<path class="st1" d="M833.8,8.7c0-3.7,3-6.7,6.7-6.7s6.8,2.6,6.8,6.3"/>
	<path class="st1" d="M846.7,34.6h-18c-3.7,0-6.7-3-6.7-6.7c0-3.7,3-6.7,6.7-6.7h18"/>
	<path class="st1" d="M809.1,30.2c0,0-4.8,8.3,1.4,18.1c0.9,1.3,1.3,2.9,1.3,4.5v14.5h43.6V53.4c0-1.3,0.5-2.6,1.4-3.6
		c2.6-2.7,7.3-9.6,2.6-19.6c0,0-4.7-9.6-12.7-9"/>
	<path class="st1" d="M840.5,34.6c0,0-11.7,0.5-10.9,15"/>
	<path class="st1" d="M904.7,124.5L904.7,124.5c-3.7,0-6.7,3-6.7,6.7v10.2c0,3.7,3,6.7,6.7,6.7h0c3.7,0,6.7-3,6.7-6.7v-10.2
		C911.4,127.5,908.4,124.5,904.7,124.5z"/>
	<path class="st1" d="M938.3,136.8v-12.1c0-3.7,3-6.7,6.7-6.7c3.7,0,6.7,3,6.7,6.7v16.7c0,1.5-0.5,2.9-1.4,4.1"/>
	<path class="st1" d="M914.2,147.8c-2.1-1.1-2.9-3.9-2.9-6.4v-16.7c0-3.7,3-6.7,6.7-6.7s6.7,3,6.7,6.7v12.1"/>
	<path class="st1" d="M924.8,124.7c0-3.7,3-6.7,6.7-6.7s6.8,2.6,6.8,6.3"/>
	<path class="st1" d="M937.7,150.6h-18c-3.7,0-6.7-3-6.7-6.7s3-6.7,6.7-6.7h18"/>
	<path class="st1" d="M900.1,146.2c0,0-4.8,8.3,1.4,18.1c0.9,1.3,1.3,2.9,1.3,4.5v14.5h43.6v-13.9c0-1.3,0.5-2.6,1.4-3.6
		c2.6-2.7,7.3-9.6,2.6-19.6c0,0-4.7-9.6-12.7-9"/>
	<path class="st1" d="M931.5,150.6c0,0-11.7,0.5-10.9,15"/>
	<path class="st1" d="M984.8,119.7V85.9c0-3.4,2.8-6.2,6.2-6.2s6.2,2.8,6.2,6.2v34.5"/>
	<path class="st1" d="M972.3,123.3V98.1c0-3.4,2.8-6.2,6.2-6.2s6.2,2.8,6.2,6.2v19.1"/>
	<path class="st1" d="M997.3,86.5c0-3.4,2.8-6.2,6.2-6.2c3.4,0,6.2,2.8,6.2,6.2v33.4"/>
	<path class="st1" d="M1009.8,92.6c0-3.4,2.8-6.2,6.2-6.2c3.4,0,6.2,2.8,6.2,6.2v30.7"/>
	<path class="st1" d="M1022.3,123.4v11"/>
	<path class="st1" d="M972.3,120.8v27.6c0,3.2,1.1,6.3,3,8.9l1.5,2c1.1,1.4,1.7,3.1,1.7,4.9v14.5h41.3v-15.9c0-2.7,1.1-5.3,3-7.2
		l18.7-18.7c2.4-2.4,2.4-6.4,0-8.8c-2.4-2.4-6.4-2.4-8.8,0l-4.3,4.3c-1.4,1.4-3.3,2.2-5.2,2.2h-11.9c-2.5,0-5,0.7-7.1,2l-5.2,3.6"/>
	<path class="st1" d="M1046.7,47.3L1046.7,47.3c-3.7,0-6.7,2.9-6.7,6.6v10c0,3.6,3,6.6,6.6,6.6h0c3.7,0,6.6-2.9,6.6-6.6v-10
		C1053.3,50.2,1050.3,47.3,1046.7,47.3z"/>
	<path class="st1" d="M1056.2,70.1c-2.1-1.1-2.9-3.8-2.9-6.3V47.4c0-3.6,3-6.6,6.6-6.6c3.7,0,6.6,2.9,6.6,6.6v12.4"/>
	<path class="st1" d="M1079.5,72.9h-17.9c-3.7,0-6.6-2.9-6.6-6.6c0-3.6,3-6.6,6.6-6.6h17.9"/>
	<path class="st1" d="M1066,44.7l-3.9-29.1c-0.5-3.6,2.1-6.9,5.7-7.4c3.6-0.5,7,2.1,7.4,5.7l5,37.6"/>
	<path class="st1" d="M1080.7,51.4l5.5-37.6c0.5-3.6,3.9-6.1,7.5-5.6s6.2,3.8,5.6,7.4l-2.7,18.9l-1.4,9.8c0,0-3.2,16.8-2.3,26.1"/>
	<path class="st1" d="M1042.1,68.6c0,0-4.8,8.1,1.3,17.8c0.8,1.3,1.3,2.9,1.3,4.4v14.3h43.4V91.4c0-1.3,0.5-2.6,1.4-3.5
		c2.5-2.7,7.2-9.4,2.6-19.3c0,0-4.7-9.5-12.6-8.9"/>
	<path class="st1" d="M1073.3,72.9c0,0-11.7,0.5-10.9,14.8"/>
	<path class="st1" d="M974.7,8.5L974.7,8.5c-3.7,0-6.7,3-6.7,6.7v10.2c0,3.7,3,6.7,6.7,6.7h0c3.7,0,6.7-3,6.7-6.7V15.2
		C981.4,11.5,978.4,8.5,974.7,8.5z"/>
	<path class="st1" d="M1008.3,20.8V8.7c0-3.7,3-6.7,6.7-6.7c3.7,0,6.7,3,6.7,6.7v16.7c0,1.5-0.5,2.9-1.4,4.1"/>
	<path class="st1" d="M984.2,31.8c-2.1-1.1-2.9-3.9-2.9-6.4V8.7c0-3.7,3-6.7,6.7-6.7s6.7,3,6.7,6.7v12.1"/>
	<path class="st1" d="M994.8,8.7c0-3.7,3-6.7,6.7-6.7c3.7,0,6.8,2.6,6.8,6.3"/>
	<path class="st1" d="M1007.7,34.6h-18c-3.7,0-6.7-3-6.7-6.7c0-3.7,3-6.7,6.7-6.7h18"/>
	<path class="st1" d="M970.1,30.2c0,0-4.8,8.3,1.4,18.1c0.9,1.3,1.3,2.9,1.3,4.5v14.5h43.6V53.4c0-1.3,0.5-2.6,1.4-3.6
		c2.5-2.7,7.3-9.6,2.6-19.6c0,0-4.7-9.6-12.7-9"/>
	<path class="st1" d="M1001.5,34.6c0,0-11.7,0.5-10.9,15"/>
	<path class="st1" d="M1065.7,124.5L1065.7,124.5c-3.7,0-6.7,3-6.7,6.7v10.2c0,3.7,3,6.7,6.7,6.7h0c3.7,0,6.7-3,6.7-6.7v-10.2
		C1072.4,127.5,1069.4,124.5,1065.7,124.5z"/>
	<path class="st1" d="M1099.3,136.8v-12.1c0-3.7,3-6.7,6.7-6.7c3.7,0,6.7,3,6.7,6.7v16.7c0,1.5-0.5,2.9-1.4,4.1"/>
	<path class="st1" d="M1075.2,147.8c-2.1-1.1-2.9-3.9-2.9-6.4v-16.7c0-3.7,3-6.7,6.7-6.7c3.7,0,6.7,3,6.7,6.7v12.1"/>
	<path class="st1" d="M1085.8,124.7c0-3.7,3-6.7,6.7-6.7c3.7,0,6.8,2.6,6.8,6.3"/>
	<path class="st1" d="M1098.7,150.6h-18c-3.7,0-6.7-3-6.7-6.7s3-6.7,6.7-6.7h18"/>
	<path class="st1" d="M1061.1,146.2c0,0-4.8,8.3,1.3,18.1c0.9,1.3,1.3,2.9,1.3,4.5v14.5h43.6v-13.9c0-1.3,0.5-2.6,1.4-3.6
		c2.6-2.7,7.3-9.6,2.6-19.6c0,0-4.7-9.6-12.7-9"/>
	<path class="st1" d="M1092.5,150.6c0,0-11.7,0.5-10.9,15"/>
	<path class="st1" d="M1145.8,119.7V85.9c0-3.4,2.8-6.2,6.2-6.2c3.4,0,6.2,2.8,6.2,6.2v34.5"/>
	<path class="st1" d="M1133.3,123.3V98.1c0-3.4,2.8-6.2,6.2-6.2c3.4,0,6.2,2.8,6.2,6.2v19.1"/>
	<path class="st1" d="M1158.3,86.5c0-3.4,2.8-6.2,6.2-6.2c3.4,0,6.2,2.8,6.2,6.2v33.4"/>
	<path class="st1" d="M1170.8,92.6c0-3.4,2.8-6.2,6.2-6.2c3.4,0,6.2,2.8,6.2,6.2v30.7"/>
	<path class="st1" d="M1183.3,123.4v11"/>
	<path class="st1" d="M1133.3,120.8v27.6c0,3.2,1.1,6.3,3,8.9l1.5,2c1.1,1.4,1.7,3.1,1.7,4.9v14.5h41.3v-15.9c0-2.7,1.1-5.3,3-7.2
		l18.7-18.7c2.4-2.4,2.4-6.4,0-8.8c-2.4-2.4-6.4-2.4-8.8,0l-4.3,4.3c-1.4,1.4-3.3,2.2-5.2,2.2h-11.9c-2.5,0-5,0.7-7.1,2l-5.2,3.6"/>
	<path class="st1" d="M1207.7,47.3L1207.7,47.3c-3.7,0-6.7,2.9-6.7,6.6v10c0,3.6,3,6.6,6.6,6.6h0c3.7,0,6.6-2.9,6.6-6.6v-10
		C1214.3,50.2,1211.3,47.3,1207.7,47.3z"/>
	<path class="st1" d="M1217.2,70.1c-2.1-1.1-2.9-3.8-2.9-6.3V47.4c0-3.6,3-6.6,6.6-6.6c3.7,0,6.6,2.9,6.6,6.6v12.4"/>
	<path class="st1" d="M1240.5,72.9h-17.9c-3.7,0-6.6-2.9-6.6-6.6c0-3.6,3-6.6,6.6-6.6h17.9"/>
	<path class="st1" d="M1227,44.7l-3.9-29.1c-0.5-3.6,2.1-6.9,5.7-7.4c3.6-0.5,7,2.1,7.4,5.7l5,37.6"/>
	<path class="st1" d="M1241.7,51.4l5.5-37.6c0.5-3.6,3.9-6.1,7.5-5.6s6.2,3.8,5.6,7.4l-2.7,18.9l-1.4,9.8c0,0-3.2,16.8-2.3,26.1"/>
	<path class="st1" d="M1203.1,68.6c0,0-4.8,8.1,1.3,17.8c0.8,1.3,1.3,2.9,1.3,4.4v14.3h43.4V91.4c0-1.3,0.5-2.6,1.4-3.5
		c2.5-2.7,7.2-9.4,2.6-19.3c0,0-4.7-9.5-12.6-8.9"/>
	<path class="st1" d="M1234.3,72.9c0,0-11.7,0.5-10.9,14.8"/>
	<path class="st1" d="M1135.7,8.5L1135.7,8.5c-3.7,0-6.7,3-6.7,6.7v10.2c0,3.7,3,6.7,6.7,6.7h0c3.7,0,6.7-3,6.7-6.7V15.2
		C1142.4,11.5,1139.4,8.5,1135.7,8.5z"/>
	<path class="st1" d="M1169.3,20.8V8.7c0-3.7,3-6.7,6.7-6.7c3.7,0,6.7,3,6.7,6.7v16.7c0,1.5-0.5,2.9-1.4,4.1"/>
	<path class="st1" d="M1145.2,31.8c-2.1-1.1-2.9-3.9-2.9-6.4V8.7c0-3.7,3-6.7,6.7-6.7c3.7,0,6.7,3,6.7,6.7v12.1"/>
	<path class="st1" d="M1155.8,8.7c0-3.7,3-6.7,6.7-6.7c3.7,0,6.8,2.6,6.8,6.3"/>
	<path class="st1" d="M1168.7,34.6h-18c-3.7,0-6.7-3-6.7-6.7c0-3.7,3-6.7,6.7-6.7h18"/>
	<path class="st1" d="M1131.1,30.2c0,0-4.8,8.3,1.3,18.1c0.9,1.3,1.3,2.9,1.3,4.5v14.5h43.6V53.4c0-1.3,0.5-2.6,1.4-3.6
		c2.6-2.7,7.3-9.6,2.6-19.6c0,0-4.7-9.6-12.7-9"/>
	<path class="st1" d="M1162.5,34.6c0,0-11.7,0.5-10.9,15"/>
	<path class="st1" d="M1226.7,124.5L1226.7,124.5c-3.7,0-6.7,3-6.7,6.7v10.2c0,3.7,3,6.7,6.7,6.7h0c3.7,0,6.7-3,6.7-6.7v-10.2
		C1233.4,127.5,1230.4,124.5,1226.7,124.5z"/>
	<path class="st1" d="M1260.3,136.8v-12.1c0-3.7,3-6.7,6.7-6.7c3.7,0,6.7,3,6.7,6.7v16.7c0,1.5-0.5,2.9-1.4,4.1"/>
	<path class="st1" d="M1236.2,147.8c-2.1-1.1-2.9-3.9-2.9-6.4v-16.7c0-3.7,3-6.7,6.7-6.7c3.7,0,6.7,3,6.7,6.7v12.1"/>
	<path class="st1" d="M1246.8,124.7c0-3.7,3-6.7,6.7-6.7c3.7,0,6.8,2.6,6.8,6.3"/>
	<path class="st1" d="M1259.7,150.6h-18c-3.7,0-6.7-3-6.7-6.7s3-6.7,6.7-6.7h18"/>
	<path class="st1" d="M1222.1,146.2c0,0-4.8,8.3,1.3,18.1c0.9,1.3,1.3,2.9,1.3,4.5v14.5h43.6v-13.9c0-1.3,0.5-2.6,1.4-3.6
		c2.6-2.7,7.3-9.6,2.6-19.6c0,0-4.7-9.6-12.7-9"/>
	<path class="st1" d="M1253.5,150.6c0,0-11.7,0.5-10.9,15"/>
	<path class="st1" d="M1306.8,119.7V85.9c0-3.4,2.8-6.2,6.2-6.2c3.4,0,6.2,2.8,6.2,6.2v34.5"/>
	<path class="st1" d="M1294.3,123.3V98.1c0-3.4,2.8-6.2,6.2-6.2c3.4,0,6.2,2.8,6.2,6.2v19.1"/>
	<path class="st1" d="M1319.3,86.5c0-3.4,2.8-6.2,6.2-6.2c3.4,0,6.2,2.8,6.2,6.2v33.4"/>
	<path class="st1" d="M1331.8,92.6c0-3.4,2.8-6.2,6.2-6.2c3.4,0,6.2,2.8,6.2,6.2v30.7"/>
	<path class="st1" d="M1344.3,123.4v11"/>
	<path class="st1" d="M1294.3,120.8v27.6c0,3.2,1.1,6.3,3,8.9l1.5,2c1.1,1.4,1.7,3.1,1.7,4.9v14.5h41.3v-15.9c0-2.7,1.1-5.3,3-7.2
		l18.7-18.7c2.4-2.4,2.4-6.4,0-8.8c-2.4-2.4-6.4-2.4-8.8,0l-4.3,4.3c-1.4,1.4-3.3,2.2-5.2,2.2h-11.9c-2.5,0-5,0.7-7.1,2l-5.2,3.6"/>
	<path class="st1" d="M1368.7,47.3L1368.7,47.3c-3.7,0-6.7,2.9-6.7,6.6v10c0,3.6,3,6.6,6.6,6.6h0c3.7,0,6.6-2.9,6.6-6.6v-10
		C1375.3,50.2,1372.3,47.3,1368.7,47.3z"/>
	<path class="st1" d="M1378.2,70.1c-2.1-1.1-2.9-3.8-2.9-6.3V47.4c0-3.6,3-6.6,6.6-6.6c3.7,0,6.6,2.9,6.6,6.6v12.4"/>
	<path class="st1" d="M1401.5,72.9h-17.9c-3.7,0-6.6-2.9-6.6-6.6c0-3.6,3-6.6,6.6-6.6h17.9"/>
	<path class="st1" d="M1388,44.7l-3.9-29.1c-0.5-3.6,2.1-6.9,5.7-7.4c3.6-0.5,7,2.1,7.4,5.7l5,37.6"/>
	<path class="st1" d="M1402.7,51.4l5.5-37.6c0.5-3.6,3.9-6.1,7.5-5.6s6.2,3.8,5.6,7.4l-2.7,18.9l-1.4,9.8c0,0-3.2,16.8-2.3,26.1"/>
	<path class="st1" d="M1364.1,68.6c0,0-4.8,8.1,1.3,17.8c0.8,1.3,1.3,2.9,1.3,4.4v14.3h43.4V91.4c0-1.3,0.5-2.6,1.4-3.5
		c2.5-2.7,7.2-9.4,2.6-19.3c0,0-4.7-9.5-12.6-8.9"/>
	<path class="st1" d="M1395.3,72.9c0,0-11.7,0.5-10.9,14.8"/>
	<path class="st1" d="M1296.7,8.5L1296.7,8.5c-3.7,0-6.7,3-6.7,6.7v10.2c0,3.7,3,6.7,6.7,6.7h0c3.7,0,6.7-3,6.7-6.7V15.2
		C1303.4,11.5,1300.4,8.5,1296.7,8.5z"/>
	<path class="st1" d="M1330.3,20.8V8.7c0-3.7,3-6.7,6.7-6.7c3.7,0,6.7,3,6.7,6.7v16.7c0,1.5-0.5,2.9-1.4,4.1"/>
	<path class="st1" d="M1306.2,31.8c-2.1-1.1-2.9-3.9-2.9-6.4V8.7c0-3.7,3-6.7,6.7-6.7c3.7,0,6.7,3,6.7,6.7v12.1"/>
	<path class="st1" d="M1316.8,8.7c0-3.7,3-6.7,6.7-6.7c3.7,0,6.8,2.6,6.8,6.3"/>
	<path class="st1" d="M1329.7,34.6h-18c-3.7,0-6.7-3-6.7-6.7c0-3.7,3-6.7,6.7-6.7h18"/>
	<path class="st1" d="M1292.1,30.2c0,0-4.8,8.3,1.3,18.1c0.9,1.3,1.3,2.9,1.3,4.5v14.5h43.6V53.4c0-1.3,0.5-2.6,1.4-3.6
		c2.6-2.7,7.3-9.6,2.6-19.6c0,0-4.7-9.6-12.7-9"/>
	<path class="st1" d="M1323.5,34.6c0,0-11.7,0.5-10.9,15"/>
	<path class="st1" d="M1387.7,124.5L1387.7,124.5c-3.7,0-6.7,3-6.7,6.7v10.2c0,3.7,3,6.7,6.7,6.7h0c3.7,0,6.7-3,6.7-6.7v-10.2
		C1394.4,127.5,1391.4,124.5,1387.7,124.5z"/>
	<path class="st1" d="M1421.3,136.8v-12.1c0-3.7,3-6.7,6.7-6.7c3.7,0,6.7,3,6.7,6.7v16.7c0,1.5-0.5,2.9-1.4,4.1"/>
	<path class="st1" d="M1397.2,147.8c-2.1-1.1-2.9-3.9-2.9-6.4v-16.7c0-3.7,3-6.7,6.7-6.7c3.7,0,6.7,3,6.7,6.7v12.1"/>
	<path class="st1" d="M1407.8,124.7c0-3.7,3-6.7,6.7-6.7c3.7,0,6.8,2.6,6.8,6.3"/>
	<path class="st1" d="M1420.7,150.6h-18c-3.7,0-6.7-3-6.7-6.7s3-6.7,6.7-6.7h18"/>
	<path class="st1" d="M1383.1,146.2c0,0-4.8,8.3,1.3,18.1c0.9,1.3,1.3,2.9,1.3,4.5v14.5h43.6v-13.9c0-1.3,0.5-2.6,1.4-3.6
		c2.6-2.7,7.3-9.6,2.6-19.6c0,0-4.7-9.6-12.7-9"/>
	<path class="st1" d="M1414.5,150.6c0,0-11.7,0.5-10.9,15"/>
	<path class="st1" d="M1467.8,119.7V85.9c0-3.4,2.8-6.2,6.2-6.2c3.4,0,6.2,2.8,6.2,6.2v34.5"/>
	<path class="st1" d="M1455.3,123.3V98.1c0-3.4,2.8-6.2,6.2-6.2c3.4,0,6.2,2.8,6.2,6.2v19.1"/>
	<path class="st1" d="M1480.3,86.5c0-3.4,2.8-6.2,6.2-6.2c3.4,0,6.2,2.8,6.2,6.2v33.4"/>
	<path class="st1" d="M1492.8,92.6c0-3.4,2.8-6.2,6.2-6.2c3.4,0,6.2,2.8,6.2,6.2v30.7"/>
	<path class="st1" d="M1505.3,123.4v11"/>
	<path class="st1" d="M1455.3,120.8v27.6c0,3.2,1.1,6.3,3,8.9l1.5,2c1.1,1.4,1.7,3.1,1.7,4.9v14.5h41.3v-15.9c0-2.7,1.1-5.3,3-7.2
		l18.7-18.7c2.4-2.4,2.4-6.4,0-8.8c-2.4-2.4-6.4-2.4-8.8,0l-4.3,4.3c-1.4,1.4-3.3,2.2-5.2,2.2h-11.9c-2.5,0-5,0.7-7.1,2l-5.2,3.6"/>
	<path class="st1" d="M1529.7,47.3L1529.7,47.3c-3.7,0-6.7,2.9-6.7,6.6v10c0,3.6,3,6.6,6.6,6.6h0c3.7,0,6.6-2.9,6.6-6.6v-10
		C1536.3,50.2,1533.3,47.3,1529.7,47.3z"/>
	<path class="st1" d="M1539.2,70.1c-2.1-1.1-2.9-3.8-2.9-6.3V47.4c0-3.6,3-6.6,6.6-6.6c3.7,0,6.6,2.9,6.6,6.6v12.4"/>
	<path class="st1" d="M1562.5,72.9h-17.9c-3.7,0-6.6-2.9-6.6-6.6c0-3.6,3-6.6,6.6-6.6h17.9"/>
	<path class="st1" d="M1549,44.7l-3.9-29.1c-0.5-3.6,2.1-6.9,5.7-7.4c3.6-0.5,7,2.1,7.4,5.7l5,37.6"/>
	<path class="st1" d="M1563.7,51.4l5.5-37.6c0.5-3.6,3.9-6.1,7.5-5.6s6.2,3.8,5.6,7.4l-2.7,18.9l-1.4,9.8c0,0-3.2,16.8-2.3,26.1"/>
	<path class="st1" d="M1525.1,68.6c0,0-4.8,8.1,1.3,17.8c0.8,1.3,1.3,2.9,1.3,4.4v14.3h43.4V91.4c0-1.3,0.5-2.6,1.4-3.5
		c2.5-2.7,7.2-9.4,2.6-19.3c0,0-4.7-9.5-12.6-8.9"/>
	<path class="st1" d="M1556.3,72.9c0,0-11.7,0.5-10.9,14.8"/>
	<path class="st1" d="M1457.7,8.5L1457.7,8.5c-3.7,0-6.7,3-6.7,6.7v10.2c0,3.7,3,6.7,6.7,6.7h0c3.7,0,6.7-3,6.7-6.7V15.2
		C1464.4,11.5,1461.4,8.5,1457.7,8.5z"/>
	<path class="st1" d="M1491.3,20.8V8.7c0-3.7,3-6.7,6.7-6.7c3.7,0,6.7,3,6.7,6.7v16.7c0,1.5-0.5,2.9-1.4,4.1"/>
	<path class="st1" d="M1467.2,31.8c-2.1-1.1-2.9-3.9-2.9-6.4V8.7c0-3.7,3-6.7,6.7-6.7c3.7,0,6.7,3,6.7,6.7v12.1"/>
	<path class="st1" d="M1477.8,8.7c0-3.7,3-6.7,6.7-6.7c3.7,0,6.8,2.6,6.8,6.3"/>
	<path class="st1" d="M1490.7,34.6h-18c-3.7,0-6.7-3-6.7-6.7c0-3.7,3-6.7,6.7-6.7h18"/>
	<path class="st1" d="M1453.1,30.2c0,0-4.8,8.3,1.3,18.1c0.9,1.3,1.3,2.9,1.3,4.5v14.5h43.6V53.4c0-1.3,0.5-2.6,1.4-3.6
		c2.6-2.7,7.3-9.6,2.6-19.6c0,0-4.7-9.6-12.7-9"/>
	<path class="st1" d="M1484.5,34.6c0,0-11.7,0.5-10.9,15"/>
	<path class="st1" d="M1548.7,124.5L1548.7,124.5c-3.7,0-6.7,3-6.7,6.7v10.2c0,3.7,3,6.7,6.7,6.7h0c3.7,0,6.7-3,6.7-6.7v-10.2
		C1555.4,127.5,1552.4,124.5,1548.7,124.5z"/>
	<path class="st1" d="M1582.3,136.8v-12.1c0-3.7,3-6.7,6.7-6.7c3.7,0,6.7,3,6.7,6.7v16.7c0,1.5-0.5,2.9-1.4,4.1"/>
	<path class="st1" d="M1558.2,147.8c-2.1-1.1-2.9-3.9-2.9-6.4v-16.7c0-3.7,3-6.7,6.7-6.7c3.7,0,6.7,3,6.7,6.7v12.1"/>
	<path class="st1" d="M1568.8,124.7c0-3.7,3-6.7,6.7-6.7c3.7,0,6.8,2.6,6.8,6.3"/>
	<path class="st1" d="M1581.7,150.6h-18c-3.7,0-6.7-3-6.7-6.7s3-6.7,6.7-6.7h18"/>
	<path class="st1" d="M1544.1,146.2c0,0-4.8,8.3,1.3,18.1c0.9,1.3,1.3,2.9,1.3,4.5v14.5h43.6v-13.9c0-1.3,0.5-2.6,1.4-3.6
		c2.6-2.7,7.3-9.6,2.6-19.6c0,0-4.7-9.6-12.7-9"/>
	<path class="st1" d="M1575.5,150.6c0,0-11.7,0.5-10.9,15"/>
</g>
</svg>
