<svg width="174" height="524" viewBox="0 0 174 524" fill="none" xmlns="http://www.w3.org/2000/svg">
<g clip-path="url(#clip0_17_7645)">
<path d="M151.18 282.157H5.13208V663.1H151.18V282.157Z" fill="white" stroke="black" stroke-width="7" stroke-linecap="round" stroke-linejoin="round"/>
<path d="M116.999 127.672L102.756 19.3451C101.387 8.97648 91.9301 1.68218 81.6372 3.05983C71.3298 4.43749 64.0786 13.9505 65.4481 24.3047L76.4763 108.196L47.3994 143.102L71.2433 167.769L128.676 189.434L152.636 182.256C150.012 155.472 159.094 107.08 159.094 107.08L163.13 78.9031L170.9 24.6092C172.385 14.2551 165.235 4.66951 154.956 3.17585C144.664 1.68218 135.135 8.87497 133.65 19.2146L118.182 127.367" fill="white"/>
<path d="M116.999 127.672L102.756 19.3451C101.387 8.97648 91.9301 1.68218 81.6372 3.05983C71.3298 4.43749 64.0786 13.9505 65.4481 24.3047L76.4763 108.196L47.3994 143.102L71.2433 167.769L128.676 189.434L152.636 182.256C150.012 155.472 159.094 107.08 159.094 107.08L163.13 78.9031L170.9 24.6092C172.385 14.2551 165.235 4.66951 154.956 3.17585C144.664 1.68218 135.135 8.87497 133.65 19.2146L118.182 127.367" stroke="black" stroke-width="7" stroke-linecap="round" stroke-linejoin="round"/>
<path d="M48.6249 181.4C42.8009 178.181 40.5232 170.495 40.5232 163.346V116.042C40.5232 105.586 48.9421 97.1171 59.336 97.1171C69.7298 97.1171 78.1487 105.586 78.1487 116.042V151.745" fill="white"/>
<path d="M48.6249 181.4C42.8009 178.181 40.5232 170.495 40.5232 163.346V116.042C40.5232 105.586 48.9421 97.1171 59.336 97.1171C69.7298 97.1171 78.1487 105.586 78.1487 116.042V151.745" stroke="black" stroke-width="7" stroke-linecap="round" stroke-linejoin="round"/>
<path d="M8.7937 177.108C8.7937 177.108 -4.85816 200.484 12.5995 228.313C14.9925 232.127 16.3476 236.521 16.3476 241.031V282.056H139.214V242.67C139.214 238.914 140.642 235.317 143.193 232.576C150.387 224.818 163.664 205.401 150.502 177.122C150.502 177.122 137.139 149.859 114.736 151.614" fill="white"/>
<path d="M8.7937 177.108C8.7937 177.108 -4.85816 200.484 12.5995 228.313C14.9925 232.127 16.3476 236.521 16.3476 241.031V282.056H139.214V242.67C139.214 238.914 140.642 235.317 143.193 232.576C150.387 224.818 163.664 205.401 150.502 177.122C150.502 177.122 137.139 149.859 114.736 151.614" stroke="black" stroke-width="7" stroke-linecap="round" stroke-linejoin="round"/>
<path d="M21.7105 115.636H21.6961C11.3061 115.636 2.8833 124.108 2.8833 134.56V163.346C2.8833 173.798 11.3061 182.27 21.6961 182.27H21.7105C32.1005 182.27 40.5232 173.798 40.5232 163.346V134.56C40.5232 124.108 32.1005 115.636 21.7105 115.636Z" fill="white" stroke="black" stroke-width="7" stroke-linecap="round" stroke-linejoin="round"/>
<path d="M114.736 189.449H64.0354C53.6415 189.449 45.2227 180.98 45.2227 170.524C45.2227 160.069 53.6415 151.6 64.0354 151.6H114.736" fill="white"/>
<path d="M114.736 189.449H64.0354C53.6415 189.449 45.2227 180.98 45.2227 170.524C45.2227 160.069 53.6415 151.6 64.0354 151.6H114.736" stroke="black" stroke-width="7" stroke-linecap="round" stroke-linejoin="round"/>
<path d="M97.1055 189.449C97.1055 189.449 64.1075 190.899 66.2843 231.953L97.1055 189.449Z" fill="white"/>
<path d="M97.1055 189.449C97.1055 189.449 64.1075 190.899 66.2843 231.953" stroke="black" stroke-width="7" stroke-linecap="round" stroke-linejoin="round"/>
<path d="M139.214 265.452H16.3477" stroke="black" stroke-width="7" stroke-linecap="round" stroke-linejoin="round"/>
</g>
<defs>
<clipPath id="clip0_17_7645">
<rect width="174" height="666" fill="white"/>
</clipPath>
</defs>
</svg>
