<?xml version="1.0" encoding="utf-8"?>
<!-- Generator: Adobe Illustrator 27.5.0, SVG Export Plug-In . SVG Version: 6.00 Build 0)  -->
<svg version="1.1" id="Layer_1" xmlns="http://www.w3.org/2000/svg" xmlns:xlink="http://www.w3.org/1999/xlink" x="0px" y="0px"
	 viewBox="0 0 175.2 923.9" style="enable-background:new 0 0 175.2 923.9;" xml:space="preserve">
<style type="text/css">
	.st0{clip-path:url(#SVGID_00000177483387348499408840000009337598986564144290_);}
	.st1{fill:#FFFFFF;stroke:#000000;stroke-width:7;stroke-linecap:round;stroke-linejoin:round;}
	.st2{fill:#FFFFFF;}
	.st3{fill:none;stroke:#000000;stroke-width:7;stroke-linecap:round;stroke-linejoin:round;}
</style>
<g>
	<defs>
		<rect id="SVGID_1_" x="0.6" y="0.6" width="174" height="923.3"/>
	</defs>
	<clipPath id="SVGID_00000151514558905202233270000018172813717442480275_">
		<use xlink:href="#SVGID_1_"  style="overflow:visible;"/>
	</clipPath>
	<g style="clip-path:url(#SVGID_00000151514558905202233270000018172813717442480275_);">
		<path class="st1" d="M151.8,282.8H5.7V920h146V282.8z"/>
		<path class="st2" d="M117.6,128.3L103.4,20C102,9.6,92.5,2.3,82.3,3.7C71.9,5,64.7,14.6,66.1,24.9l11,83.9L48,143.7l23.8,24.7
			l57.4,21.7l24-7.2c-2.6-26.8,6.5-75.2,6.5-75.2l4-28.2l7.8-54.3c1.5-10.4-5.7-19.9-15.9-21.4c-10.3-1.5-19.8,5.7-21.3,16
			L118.8,128"/>
		<path class="st3" d="M117.6,128.3L103.4,20C102,9.6,92.5,2.3,82.3,3.7C71.9,5,64.7,14.6,66.1,24.9l11,83.9L48,143.7l23.8,24.7
			l57.4,21.7l24-7.2c-2.6-26.8,6.5-75.2,6.5-75.2l4-28.2l7.8-54.3c1.5-10.4-5.7-19.9-15.9-21.4c-10.3-1.5-19.8,5.7-21.3,16
			L118.8,128"/>
		<path class="st2" d="M49.2,182c-5.8-3.2-8.1-10.9-8.1-18.1v-47.3c0-10.5,8.4-18.9,18.8-18.9c10.4,0,18.8,8.5,18.8,18.9v35.7"/>
		<path class="st3" d="M49.2,182c-5.8-3.2-8.1-10.9-8.1-18.1v-47.3c0-10.5,8.4-18.9,18.8-18.9c10.4,0,18.8,8.5,18.8,18.9v35.7"/>
		<path class="st2" d="M9.4,177.7c0,0-13.7,23.4,3.8,51.2c2.4,3.8,3.7,8.2,3.7,12.7v41h122.9v-39.4c0-3.8,1.4-7.4,4-10.1
			c7.2-7.8,20.5-27.2,7.3-55.5c0,0-13.4-27.3-35.8-25.5"/>
		<path class="st3" d="M9.4,177.7c0,0-13.7,23.4,3.8,51.2c2.4,3.8,3.7,8.2,3.7,12.7v41h122.9v-39.4c0-3.8,1.4-7.4,4-10.1
			c7.2-7.8,20.5-27.2,7.3-55.5c0,0-13.4-27.3-35.8-25.5"/>
		<path class="st1" d="M22.3,116.2L22.3,116.2c-10.4,0-18.8,8.5-18.8,18.9V164c0,10.5,8.4,18.9,18.8,18.9h0
			c10.4,0,18.8-8.5,18.8-18.9v-28.8C41.1,124.7,32.7,116.2,22.3,116.2z"/>
		<path class="st2" d="M115.4,190.1H64.7c-10.4,0-18.8-8.5-18.8-18.9c0-10.5,8.4-18.9,18.8-18.9h50.7"/>
		<path class="st3" d="M115.4,190.1H64.7c-10.4,0-18.8-8.5-18.8-18.9c0-10.5,8.4-18.9,18.8-18.9h50.7"/>
		<path class="st2" d="M97.7,190.1c0,0-33,1.4-30.8,42.5L97.7,190.1z"/>
		<path class="st3" d="M97.7,190.1c0,0-33,1.4-30.8,42.5"/>
		<path class="st3" d="M139.8,266.1H17"/>
	</g>
</g>
</svg>
