<?xml version="1.0" encoding="utf-8"?>
<!-- Generator: Adobe Illustrator 27.5.0, SVG Export Plug-In . SVG Version: 6.00 Build 0)  -->
<svg version="1.1" id="Layer_1" xmlns="http://www.w3.org/2000/svg" xmlns:xlink="http://www.w3.org/1999/xlink" x="0px" y="0px"
	 viewBox="0 0 923.3 174" style="enable-background:new 0 0 923.3 174;" xml:space="preserve">
<style type="text/css">
	.st0{clip-path:url(#SVGID_00000105385185024784367430000016712279077318453429_);}
	.st1{fill:#FFFFFF;stroke:#000000;stroke-width:7;stroke-linecap:round;stroke-linejoin:round;}
	.st2{fill:#FFFFFF;}
	.st3{fill:none;stroke:#000000;stroke-width:7;stroke-linecap:round;stroke-linejoin:round;}
</style>
<g>
	<g>
		<defs>
			<rect id="SVGID_1_" width="923.3" height="174"/>
		</defs>
		<clipPath id="SVGID_00000010275030028914517210000005539890015407396768_">
			<use xlink:href="#SVGID_1_"  style="overflow:visible;"/>
		</clipPath>
		<g style="clip-path:url(#SVGID_00000010275030028914517210000005539890015407396768_);">
			<path class="st1" d="M641.1,22.8v146.1H3.9v-146h637.2V22.8z"/>
			<path class="st2" d="M795.6,57l108.3,14.2c10.4,1.4,17.7,10.9,16.3,21.1c-1.3,10.4-10.9,17.6-21.2,16.2l-83.9-11l-34.9,29.1
				l-24.7-23.8l-21.7-57.4l7.2-24c26.8,2.6,75.2-6.5,75.2-6.5l28.2-4l54.3-7.8c10.4-1.5,19.9,5.7,21.4,15.9
				c1.5,10.3-5.7,19.8-16,21.3L795.9,55.8"/>
			<path class="st3" d="M795.6,57l108.3,14.2c10.4,1.4,17.7,10.9,16.3,21.1c-1.3,10.4-10.9,17.6-21.2,16.2l-83.9-11l-34.9,29.1
				l-24.7-23.8l-21.7-57.4l7.2-24c26.8,2.6,75.2-6.5,75.2-6.5l28.2-4l54.3-7.8c10.4-1.5,19.9,5.7,21.4,15.9
				c1.5,10.3-5.7,19.8-16,21.3L795.9,55.8"/>
			<path class="st2" d="M741.9,125.4c3.2,5.8,10.9,8.1,18.1,8.1h47.3c10.5,0,18.9-8.4,18.9-18.8s-8.5-18.8-18.9-18.8h-35.7"/>
			<path class="st3" d="M741.9,125.4c3.2,5.8,10.9,8.1,18.1,8.1h47.3c10.5,0,18.9-8.4,18.9-18.8s-8.5-18.8-18.9-18.8h-35.7"/>
			<path class="st2" d="M746.2,165.2c0,0-23.4,13.7-51.2-3.8c-3.8-2.4-8.2-3.7-12.7-3.7h-41V34.8h39.4c3.8,0,7.4-1.4,10.1-4
				c7.8-7.2,27.2-20.5,55.5-7.3c0,0,27.3,13.4,25.5,35.8"/>
			<path class="st3" d="M746.2,165.2c0,0-23.4,13.7-51.2-3.8c-3.8-2.4-8.2-3.7-12.7-3.7h-41V34.8h39.4c3.8,0,7.4-1.4,10.1-4
				c7.8-7.2,27.2-20.5,55.5-7.3c0,0,27.3,13.4,25.5,35.8"/>
			<path class="st1" d="M807.7,152.3L807.7,152.3c0,10.4-8.5,18.8-18.9,18.8h-28.9c-10.5,0-18.9-8.4-18.9-18.8l0,0
				c0-10.4,8.5-18.8,18.9-18.8h28.8C799.2,133.5,807.7,141.9,807.7,152.3z"/>
			<path class="st2" d="M733.8,59.2v50.7c0,10.4,8.5,18.8,18.9,18.8c10.5,0,18.9-8.4,18.9-18.8V59.2"/>
			<path class="st3" d="M733.8,59.2v50.7c0,10.4,8.5,18.8,18.9,18.8c10.5,0,18.9-8.4,18.9-18.8V59.2"/>
			<path class="st2" d="M733.8,76.9c0,0-1.4,33-42.5,30.8L733.8,76.9z"/>
			<path class="st3" d="M733.8,76.9c0,0-1.4,33-42.5,30.8"/>
			<path class="st3" d="M657.8,34.8v122.8"/>
		</g>
	</g>
</g>
</svg>
